<?xml version="1.0" encoding="iso-8859-1"?>
<!-- Generator: Adobe Illustrator 19.0.0, SVG Export Plug-In . SVG Version: 6.00 Build 0)  -->
<svg version="1.1" id="Layer_1" xmlns="http://www.w3.org/2000/svg" xmlns:xlink="http://www.w3.org/1999/xlink" x="0px" y="0px"
	 viewBox="0 0 512 512" style="enable-background:new 0 0 512 512;" xml:space="preserve">
<g>
	<g>
		<g>
			<path d="M490.133,192H352V54.4c0-19.52-11.947-33.067-29.12-33.067H189.12C171.947,21.333,160,34.987,160,54.4V192H21.867
				C6.72,192,0,201.6,0,211.2V256h21.333v224c0,5.867,4.8,10.667,10.667,10.667s10.667-4.8,10.667-10.667V256h31.04
				c0.32,0.32,0.64,0.747,0.96,1.067v169.6c0,5.867,4.8,10.667,10.667,10.667c5.867,0,10.667-4.8,10.667-10.667v-153.28
				c11.84,7.36,26.453,14.933,43.2,23.68c6.613,3.52,13.76,7.147,21.013,10.987c-0.107,0.427-0.213,0.747-0.213,1.173V426.56
				c0,5.867,4.8,10.667,10.667,10.667c5.867,0,10.667-4.8,10.667-10.667V319.68c19.733,10.88,38.827,22.933,57.28,35.947
				l3.733,2.667C264.853,374.72,280.64,384,341.333,384c35.84,0,59.627-18.027,74.667-39.68v82.347
				c0,5.867,4.8,10.667,10.667,10.667c5.867,0,10.667-4.8,10.667-10.667V288c0-10.773,1.493-21.547,4.373-32h27.627v224
				c0,5.867,4.8,10.667,10.667,10.667c5.867,0,10.667-4.8,10.667-10.667V256H512v-44.8C512,201.6,505.28,192,490.133,192z
				 M64,234.24c0,0.107,0,0.32,0,0.427H21.333v-21.333H64V234.24z M181.333,54.4c0-5.333,1.387-11.733,7.787-11.733h133.867
				c6.4,0,7.787,6.4,7.787,11.733V192h-149.44V54.4z M416.853,273.173c-0.533,1.28-0.853,2.773-0.853,4.16v9.92
				c-1.067,7.68-12.48,75.413-74.667,75.413c-56.747,0-67.947-8.107-86.507-21.547l-3.84-2.773
				c-35.627-25.6-72.427-44.693-101.973-60.16c-31.253-16.32-63.68-33.173-63.68-43.947v-20.907h352
				C426.027,231.467,419.093,251.947,416.853,273.173z M490.667,234.667H449.92c3.733-7.573,8.213-14.72,13.547-21.333h27.2V234.667
				z"/>
			<path d="M224,74.667c-5.867,0-10.667,4.8-10.667,10.667V160c0,5.867,4.8,10.667,10.667,10.667c5.867,0,10.667-4.8,10.667-10.667
				V85.333C234.667,79.467,229.867,74.667,224,74.667z"/>
			<path d="M288,74.667c-5.867,0-10.667,4.8-10.667,10.667V160c0,5.867,4.8,10.667,10.667,10.667c5.867,0,10.667-4.8,10.667-10.667
				V85.333C298.667,79.467,293.867,74.667,288,74.667z"/>
		</g>
	</g>
</g>
<g>
</g>
<g>
</g>
<g>
</g>
<g>
</g>
<g>
</g>
<g>
</g>
<g>
</g>
<g>
</g>
<g>
</g>
<g>
</g>
<g>
</g>
<g>
</g>
<g>
</g>
<g>
</g>
<g>
</g>
</svg>
