<?xml version="1.0" encoding="iso-8859-1"?>
<!-- Generator: Adobe Illustrator 19.0.0, SVG Export Plug-In . SVG Version: 6.00 Build 0)  -->
<svg version="1.1" id="Capa_1" xmlns="http://www.w3.org/2000/svg" xmlns:xlink="http://www.w3.org/1999/xlink" x="0px" y="0px"
	 viewBox="0 0 60 60" style="enable-background:new 0 0 60 60;" xml:space="preserve">
<g>
	<g>
		<path d="M59.7,30.3l-8-9C51.6,21.1,51.3,21,51,21h-7V8c0-0.6-0.4-1-1-1H1C0.4,7,0,7.4,0,8v30v6c0,0.6,0.4,1,1,1h5v-2H2v-4h40v4H22
			v2h21c0.6,0,1-0.4,1-1v-6V23h6.6l6.2,7H50v2h8v12h2V31C60,30.7,59.9,30.5,59.7,30.3z M2,37V9h40v13v15H2z"/>
		<path d="M14,41c-3.3,0-6,2.7-6,6s2.7,6,6,6s6-2.7,6-6S17.3,41,14,41z M14,51c-2.2,0-4-1.8-4-4s1.8-4,4-4s4,1.8,4,4S16.2,51,14,51z
			"/>
		<path d="M51,41c-3.3,0-6,2.7-6,6s2.7,6,6,6s6-2.7,6-6S54.3,41,51,41z M51,51c-2.2,0-4-1.8-4-4s1.8-4,4-4s4,1.8,4,4S53.2,51,51,51z
			"/>
		<rect x="50" y="35" width="3" height="2"/>
		<circle cx="14" cy="47" r="2"/>
		<circle cx="51" cy="47" r="2"/>
		<path d="M36,13h-6h-6H14v2h9v5c0,0.6,0.4,1,1,1h6c0.6,0,1-0.4,1-1v-5h4v16H8v2h28c0.6,0,1-0.4,1-1V14C37,13.4,36.6,13,36,13z
			 M29,19h-4v-4h4V19z"/>
		<rect x="29" y="24" width="4" height="2"/>
		<rect x="27" y="27" width="6" height="2"/>
		<rect x="11" y="25" width="8" height="2"/>
		<rect x="8" y="19" width="11" height="2"/>
	</g>
</g>
<g>
</g>
<g>
</g>
<g>
</g>
<g>
</g>
<g>
</g>
<g>
</g>
<g>
</g>
<g>
</g>
<g>
</g>
<g>
</g>
<g>
</g>
<g>
</g>
<g>
</g>
<g>
</g>
<g>
</g>
</svg>
